# xmcd
#
# Track frame offsets:
#	150
#	17729
#	36041
#	53840
#	71529
#	93577
#	110490
#	125481
#	142050
#	159678
#	173178
#	195332
#
# Disc length: 2892 seconds
#
# Revision: 1
# Processed by: cddbd v1.5.2PL0 Copyright (c) Steve Scherf et al.
# Submitted via: audiograbber 1.83.01
#
DISCID=a50b4a0c
DTITLE=Lady Antebellum - Own The Night
DYEAR=2011
DGENRE=Country
TTITLE0=We Owned the Night
TTITLE1=Just A Kiss
TTITLE2=Dancin' Away With My Heart
TTITLE3=Friday Night
TTITLE4=When You Were Mine
TTITLE5=Cold As Stone
TTITLE6=Singin Me Home
TTITLE7=Wanted You More
TTITLE8=As You Turn Away
TTITLE9=Love I've Found In You
TTITLE10=Somewhere Love Remains
TTITLE11=Heart Of The World
EXTD=
EXTT0=
EXTT1=
EXTT2=
EXTT3=
EXTT4=
EXTT5=
EXTT6=
EXTT7=
EXTT8=
EXTT9=
EXTT10=
EXTT11=
PLAYORDER=
